<?xml version="1.0" ?><svg enable-background="new 0 0 24 24" id="Layer_1" version="1.1" viewBox="0 0 24 24" xml:space="preserve" xmlns="http://www.w3.org/2000/svg" xmlns:xlink="http://www.w3.org/1999/xlink"><g><path d="M19,13.8481445c-0.0117798-2.616272-0.331665-4.447998-1.0168457-5.7998047   C18.1484375,8.0246582,18.3126831,8,18.5,8C18.7763672,8,19,7.7763672,19,7.5C19,5.4472656,18.7402344,3,17.5,3   c-0.3088989,0-0.5864258,0.0828857-0.8806152,0.2022095C16.1723022,2.4692993,15.3781128,2,14.5,2   c-0.8208618,0-1.5440063,0.40271-2,1.0152588C12.0440063,2.40271,11.3208618,2,10.5,2   C9.7213135,2,9.0061646,2.3863525,8.5357056,3.0029907C8.5236206,3.0028076,8.512146,3,8.5,3   C7.288208,3,6.2763062,3.8795166,6.0605469,5.0479736C5.4276733,5.3826294,5,6.0371094,5,6.7919922v1.3881836   c0,0.3890991,0.2775269,0.7003784,0.6415405,0.7838745C5.2174683,10.2064209,5.0099487,11.7814331,5,13.8481445   C4.5996094,14.4589844,3,17.0219727,3,19c0,2.6103516,5.6386719,3,9,3s9-0.3896484,9-3   C21,17.0219727,19.4003906,14.4589844,19,13.8481445z" fill="#303C42"/><path d="M14.5,3c0.4802856,0,0.9199219,0.2342529,1.1967163,0.6103516   c-0.6078491,0.2633057-1.4326782,0.550415-2.6801758,0.7258301C13.0993652,3.586792,13.7289429,3,14.5,3z" fill="#FFCA28"/><path d="M14.8032837,3.5c0.2533569,0,0.4933472,0.0684814,0.7061157,0.1852417   c0.0609131-0.0249634,0.1303711-0.0502319,0.1873169-0.0748901C15.4199219,3.2342529,14.9802856,3,14.5,3   c-0.7710571,0-1.4006348,0.586792-1.4834595,1.3361816c0.1854248-0.026062,0.343689-0.0588379,0.5111084-0.0894165   C13.7869263,3.8049316,14.2543335,3.5,14.8032837,3.5z" fill="#FFFFFF" opacity="0.2"/><path d="M10.5,3c0.8075562,0,1.4633179,0.6427002,1.4942017,1.4428101   c-0.3728027,0.0272217-0.7750854,0.0446777-1.2140503,0.0501099c-0.2318726-0.5276489-0.6361694-0.9494019-1.1332397-1.2086182   C9.8934326,3.1073608,10.18396,3,10.5,3z" fill="#FFCA28"/><path d="M10.3530884,3.5c0.6329956,0,1.1679077,0.3972168,1.3864746,0.9533081   c0.0808716-0.0048218,0.1764526-0.0047607,0.2546387-0.010498C11.9633179,3.6427002,11.3075562,3,10.5,3   c-0.31604,0-0.6065674,0.1073608-0.8530884,0.2843018c0.1432495,0.074707,0.2758789,0.1663208,0.4017944,0.2666626   C10.1484985,3.5281372,10.2468262,3.5,10.3530884,3.5z" fill="#FFFFFF" opacity="0.2"/><path d="M8.5,4c0.4364624,0,0.8241577,0.2045288,1.1008301,0.5167236   C8.6846924,4.5418091,7.887207,4.6022949,7.2425537,4.7056885C7.5078125,4.2827148,7.9713135,4,8.5,4z" fill="#FFCA28"/><path d="M6,6.7919922C6,6.340332,6.2900391,5.9472656,6.7050781,5.8364258   C7.5371094,5.6132812,8.8134766,5.5,10.5,5.5c3.5048828,0,5.1054688-0.7397461,6.0615234-1.1816406   C16.9619141,4.1337891,17.2509766,4,17.4355469,3.9829102c0.2666016,0.1933594,0.5117188,1.5791016,0.5566406,3.043457   c-1.0009766,0.105957-1.7099609,0.5166016-2.3994141,0.9150391C14.6933594,8.4619141,13.7626953,9,12,9   c-1.7353516,0-2.8017578-0.2553711-3.3916016-0.4697266C7.7060547,8.2021484,6.8291016,8.0249023,6,8.0024414V6.7919922z" fill="#AB6116"/><path d="M7,7.7919922C7,7.340332,7.2900391,6.9472656,7.7050781,6.8364258   C8.5371094,6.6132812,9.8134766,6.5,11.5,6.5c3.5048828,0,5.1054688-0.7397461,6.0615234-1.1816406   c0.1015625-0.046814,0.175415-0.0777588,0.2627563-0.1169434c-0.1038208-0.6405029-0.2423706-1.1123657-0.3887329-1.2185059   C17.2509766,4,16.9619141,4.1337891,16.5615234,4.3183594C15.6054688,4.7602539,14.0048828,5.5,10.5,5.5   c-1.6865234,0-2.9628906,0.1132812-3.7949219,0.3364258C6.2900391,5.9472656,6,6.340332,6,6.7919922v1.2104492   c0.3258057,0.0088501,0.6607666,0.048584,1,0.1049805V7.7919922z" fill="#FFFFFF" opacity="0.2"/><path d="M12,21c-4.7099609,0-8-0.8222656-8-2c0-1.9023438,1.8935547-4.6894531,1.9121094-4.7172852   C5.9697266,14.1992188,6,14.1010742,6,14c0-2.1641235,0.2151489-3.7431641,0.6672974-4.9331665   C7.1804199,9.1382446,7.708252,9.2670288,8.2666016,9.4697266C9.234375,9.8217773,10.4902344,10,12,10   c2.03125,0,3.1269531-0.6337891,4.09375-1.1928711c0.3064575-0.1774292,0.5994263-0.3371582,0.9040527-0.4730835   C17.6777344,9.5671387,18,11.3804932,18,14c0,0.1010742,0.0302734,0.199707,0.0878906,0.2827148   C18.1064453,14.3105469,20,17.09375,20,19C20,20.1777344,16.7099609,21,12,21z" fill="#BA7118"/><path d="M6,19c0-1.9023438,1.420166-4.6894531,1.434082-4.7172852   C7.4772949,14.1992188,7.5,14.1010742,7.5,14c0-1.99646,0.1444092-3.4785767,0.4319458-4.6329956   C7.4974976,9.2294312,7.0752563,9.1235962,6.6672974,9.0668335C6.2151489,10.2568359,6,11.8358765,6,14   c0,0.1010742-0.0302734,0.1992188-0.0878906,0.2827148C5.8935547,14.3105469,4,17.0976562,4,19c0,1.1777344,3.2900391,2,8,2   C8.4675293,21,6,20.1777344,6,19z" fill="#FFFFFF" opacity="0.2"/><path d="M18.0878906,14.2827148C18.0302734,14.199707,18,14.1010742,18,14   c0-2.6195068-0.3222656-4.4328613-1.0021973-5.6659546c-0.3046265,0.1359253-0.5975952,0.2956543-0.9040527,0.4730835   c-0.0482178,0.0278931-0.0987549,0.0563354-0.1477051,0.0844727C16.3200684,10.095459,16.5,11.7483521,16.5,14   c0,0.1010742,0.0227051,0.199707,0.065918,0.2827148C16.579834,14.3105469,18,17.09375,18,19c0,1.1777344-2.4675293,2-6,2   c4.7099609,0,8-0.8222656,8-2C20,17.09375,18.1064453,14.3105469,18.0878906,14.2827148z" opacity="0.1"/><linearGradient gradientUnits="userSpaceOnUse" id="SVGID_1_" x1="3.9473417" x2="22.0746651" y1="8.6152363" y2="17.0681458"><stop offset="0" style="stop-color:#FFFFFF;stop-opacity:0.2"/><stop offset="1" style="stop-color:#FFFFFF;stop-opacity:0"/></linearGradient><path d="M19,13.8481445c-0.0117798-2.616272-0.331665-4.447998-1.0168457-5.7998047   C18.1484375,8.0246582,18.3126831,8,18.5,8C18.7763672,8,19,7.7763672,19,7.5C19,5.4472656,18.7402344,3,17.5,3   c-0.3088989,0-0.5864258,0.0828857-0.8806152,0.2022095C16.1723022,2.4692993,15.3781128,2,14.5,2   c-0.8208618,0-1.5440063,0.40271-2,1.0152588C12.0440063,2.40271,11.3208618,2,10.5,2   C9.7213135,2,9.0061646,2.3863525,8.5357056,3.0029907C8.5236206,3.0028076,8.512146,3,8.5,3   C7.288208,3,6.2763062,3.8795166,6.0605469,5.0479736C5.4276733,5.3826294,5,6.0371094,5,6.7919922v1.3881836   c0,0.3890991,0.2775269,0.7003784,0.6415405,0.7838745C5.2174683,10.2064209,5.0099487,11.7814331,5,13.8481445   C4.5996094,14.4589844,3,17.0219727,3,19c0,2.6103516,5.6386719,3,9,3s9-0.3896484,9-3   C21,17.0219727,19.4003906,14.4589844,19,13.8481445z" fill="url(#SVGID_1_)"/></g><g/><g/><g/><g/><g/><g/><g/><g/><g/><g/><g/><g/><g/><g/><g/></svg>